<svg version="1.1" id="Layer_1" xmlns="http://www.w3.org/2000/svg" xmlns:xlink="http://www.w3.org/1999/xlink" x="0px" y="0px"
	 width="100%" viewBox="0 0 295 266" enable-background="new 0 0 295 266" xml:space="preserve">
<path fill="#000000" opacity="1.000000" stroke="none" 
	d="
M169.000000,267.000000 
	C112.666664,267.000000 56.833332,267.000000 1.000000,267.000000 
	C1.000000,178.333328 1.000000,89.666664 1.000000,1.000000 
	C99.333336,1.000000 197.666672,1.000000 296.000000,1.000000 
	C296.000000,89.666664 296.000000,178.333328 296.000000,267.000000 
	C253.833328,267.000000 211.666672,267.000000 169.000000,267.000000 
M54.078487,242.591797 
	C54.432312,242.409897 54.786137,242.227997 56.059513,242.024963 
	C75.042000,241.966431 94.024483,241.907883 113.828300,241.989487 
	C115.212692,241.942780 116.597084,241.896057 118.908890,242.010406 
	C145.251404,242.046997 171.593903,242.083588 198.372147,242.857498 
	C202.093735,242.570923 205.841385,242.464645 209.527313,241.931534 
	C211.814194,241.600769 213.004227,240.233063 211.020279,237.341064 
	C211.027588,236.935608 211.034897,236.530136 211.576523,235.932938 
	C211.398376,235.580322 211.220215,235.227692 211.014786,233.953781 
	C211.014038,199.531937 210.996170,165.110062 211.059128,130.688339 
	C211.062561,128.809586 211.740494,126.932076 212.895721,125.004326 
	C214.290985,124.680237 215.686234,124.356148 217.848648,124.347328 
	C226.094360,124.347328 234.340088,124.347328 243.483109,124.347328 
	C238.459381,119.571854 234.385315,115.510826 230.111832,111.671768 
	C216.817429,99.728821 203.447433,87.870033 190.013290,75.048225 
	C190.342209,57.055702 190.724258,39.063728 190.909927,21.069721 
	C190.926727,19.442333 189.678223,17.801889 188.166031,16.034292 
	C181.819458,16.327032 175.472900,16.619770 168.696594,16.240755 
	C168.482178,26.186060 168.259216,36.131222 168.092819,46.077332 
	C168.087601,46.389984 168.666077,46.712402 168.997803,47.915726 
	C168.997803,50.572983 168.997803,53.230244 168.997803,55.887501 
	C168.543427,56.002632 168.089066,56.117767 167.634689,56.232899 
	C160.743073,49.932442 153.851501,43.631943 146.959793,37.331558 
	C142.569214,33.317684 138.180557,29.301701 133.786911,25.291185 
	C131.667755,23.356823 129.885208,22.427603 127.223396,25.083672 
	C123.535675,28.763437 119.131660,31.712109 115.232529,35.195644 
	C101.734222,47.255169 88.288742,59.374416 74.886551,71.540756 
	C63.295498,82.062981 51.833069,92.727043 40.225941,103.231354 
	C35.855930,107.186172 30.837841,110.496887 26.862196,114.792580 
	C23.713495,118.194763 21.705339,122.652504 20.334696,124.826805 
	C26.540636,124.826805 35.815285,124.826805 45.950111,124.952385 
	C48.265450,124.978653 50.580791,125.004913 52.992104,125.960121 
	C52.994541,163.000778 52.984787,200.041443 53.038986,237.082031 
	C53.041443,238.759613 53.621845,240.436356 53.981289,242.035492 
	C53.981289,242.035492 53.894665,242.065582 54.078487,242.591797 
z"/>
<path fill="#FAF8E6" opacity="1.000000" stroke="none" 
	d="
M212.104462,125.053993 
	C211.740494,126.932076 211.062561,128.809586 211.059128,130.688339 
	C210.996170,165.110062 211.014038,199.531937 211.012695,234.726898 
	C211.021149,235.708252 211.031677,235.916473 211.042221,236.124680 
	C211.034897,236.530136 211.027588,236.935608 210.762787,237.866776 
	C208.769745,239.258530 207.113159,240.406540 205.278931,240.920273 
	C202.905594,241.585022 200.390488,241.743637 197.936417,242.120163 
	C171.593903,242.083588 145.251404,242.046997 118.196671,241.695648 
	C115.991959,241.537033 114.499466,241.693207 113.006973,241.849365 
	C94.024483,241.907883 75.042000,241.966431 55.288063,242.020767 
	C54.309296,242.032913 54.101982,242.049240 53.894665,242.065582 
	C53.894665,242.065582 53.981289,242.035492 53.980972,241.598755 
	C53.983906,202.448853 53.987156,163.735672 54.459610,125.015198 
	C106.293831,125.006920 157.658844,125.005936 209.353424,125.003052 
	C210.123169,124.997650 210.563339,124.994148 211.278839,125.004692 
	C211.737625,125.030487 211.921036,125.042236 212.104462,125.053993 
M197.777374,156.803741 
	C196.979523,155.810913 196.195480,153.966629 195.381729,153.953430 
	C183.802368,153.765457 172.218964,153.825256 160.467346,153.825256 
	C160.467346,178.108246 160.467346,201.763672 160.467346,225.424622 
	C173.056549,225.424622 185.258545,225.424622 197.784348,225.424622 
	C197.784348,202.612381 197.784348,180.180954 197.777374,156.803741 
M98.499878,147.998169 
	C88.357315,147.998840 78.213882,148.073074 68.072723,147.954041 
	C65.138428,147.919601 63.919163,148.785553 63.945122,151.911346 
	C64.065239,166.375946 64.046707,180.842392 63.958069,195.307449 
	C63.940662,198.148285 65.045166,199.052826 67.790665,199.039352 
	C83.918587,198.960190 100.047287,198.961548 116.175232,199.038544 
	C118.888748,199.051514 120.058693,198.215652 120.040703,195.340927 
	C119.949127,180.709641 119.960136,166.077301 120.029358,151.445770 
	C120.041740,148.829056 118.976456,147.930435 116.458923,147.973328 
	C110.807388,148.069672 105.153015,148.000168 98.499878,147.998169 
z"/>
<path fill="#6F9FA3" opacity="1.000000" stroke="none" 
	d="
M169.126328,16.912508 
	C175.472900,16.619770 181.819458,16.327032 188.586761,16.558432 
	C189.005386,34.844902 188.970459,52.607376 189.049683,70.369347 
	C189.058044,72.240631 189.738251,74.108925 190.106750,75.978607 
	C203.447433,87.870033 216.817429,99.728821 230.111832,111.671768 
	C234.385315,115.510826 238.459381,119.571854 243.483109,124.347328 
	C234.340088,124.347328 226.094360,124.347328 217.031021,124.164810 
	C214.476639,123.984398 212.739868,123.986511 210.835754,123.701828 
	C185.777954,102.031776 160.840164,80.703125 136.060135,59.192711 
	C133.129929,56.649128 131.333481,56.770241 128.563919,59.222404 
	C119.336082,67.392693 109.875198,75.299042 100.551994,83.362465 
	C84.938126,96.866554 69.361519,110.413712 53.350025,123.949188 
	C50.317192,124.246025 47.703564,124.536415 45.089935,124.826805 
	C35.815285,124.826805 26.540636,124.826805 20.334696,124.826805 
	C21.705339,122.652504 23.713495,118.194763 26.862196,114.792580 
	C30.837841,110.496887 35.855930,107.186172 40.225941,103.231354 
	C51.833069,92.727043 63.295498,82.062981 74.886551,71.540756 
	C88.288742,59.374416 101.734222,47.255169 115.232529,35.195644 
	C119.131660,31.712109 123.535675,28.763437 127.223396,25.083672 
	C129.885208,22.427603 131.667755,23.356823 133.786911,25.291185 
	C138.180557,29.301701 142.569214,33.317684 146.959793,37.331558 
	C153.851501,43.631943 160.743073,49.932442 167.634689,56.232899 
	C168.089066,56.117767 168.543427,56.002632 168.997803,55.887501 
	C168.997803,53.230244 168.997803,50.572983 169.005325,47.002937 
	C169.050674,36.364269 169.088501,26.638388 169.126328,16.912508 
z"/>
<path fill="#E1E9E0" opacity="1.000000" stroke="none" 
	d="
M45.520023,124.889595 
	C47.703564,124.536415 50.317192,124.246025 53.838558,123.965698 
	C104.111458,123.984184 153.476639,123.980515 202.841721,124.043449 
	C204.902832,124.046074 206.963165,124.670303 209.023849,125.004951 
	C157.658844,125.005936 106.293831,125.006920 54.186111,125.019608 
	C53.260979,125.031258 53.078552,125.031212 52.896130,125.031174 
	C50.580791,125.004913 48.265450,124.978653 45.520023,124.889595 
z"/>
<path fill="#FFFFFE" opacity="1.000000" stroke="none" 
	d="
M52.944115,125.495651 
	C53.078552,125.031212 53.260979,125.031258 53.716904,125.026894 
	C53.987156,163.735672 53.983906,202.448853 53.956856,241.637756 
	C53.621845,240.436356 53.041443,238.759613 53.038986,237.082031 
	C52.984787,200.041443 52.994541,163.000778 52.944115,125.495651 
z"/>
<path fill="#82ABAF" opacity="1.000000" stroke="none" 
	d="
M190.060028,75.513412 
	C189.738251,74.108925 189.058044,72.240631 189.049683,70.369347 
	C188.970459,52.607376 189.005386,34.844902 189.012390,16.625040 
	C189.678223,17.801889 190.926727,19.442333 190.909927,21.069721 
	C190.724258,39.063728 190.342209,57.055702 190.060028,75.513412 
z"/>
<path fill="#F6F9F9" opacity="1.000000" stroke="none" 
	d="
M168.911469,16.576632 
	C169.088501,26.638388 169.050674,36.364269 168.992645,46.560211 
	C168.666077,46.712402 168.087601,46.389984 168.092819,46.077332 
	C168.259216,36.131222 168.482178,26.186060 168.911469,16.576632 
z"/>
<path fill="#FFFFFE" opacity="1.000000" stroke="none" 
	d="
M198.154282,242.488831 
	C200.390488,241.743637 202.905594,241.585022 205.278931,240.920273 
	C207.113159,240.406540 208.769745,239.258530 210.808228,238.167603 
	C213.004227,240.233063 211.814194,241.600769 209.527313,241.931534 
	C205.841385,242.464645 202.093735,242.570923 198.154282,242.488831 
z"/>
<path fill="#E1E9E0" opacity="1.000000" stroke="none" 
	d="
M211.003113,123.988632 
	C212.739868,123.986511 214.476639,123.984398 216.647446,124.007172 
	C215.686234,124.356148 214.290985,124.680237 212.500092,125.029160 
	C211.921036,125.042236 211.737625,125.030487 211.273102,124.754242 
	C210.995712,124.322708 210.999405,124.155670 211.003113,123.988632 
z"/>
<path fill="#FFFFFE" opacity="1.000000" stroke="none" 
	d="
M113.417633,241.919434 
	C114.499466,241.693207 115.991959,241.537033 117.732964,241.615112 
	C116.597084,241.896057 115.212692,241.942780 113.417633,241.919434 
z"/>
<path fill="#FFFFFE" opacity="1.000000" stroke="none" 
	d="
M211.309372,236.028809 
	C211.031677,235.916473 211.021149,235.708252 211.026337,235.187561 
	C211.220215,235.227692 211.398376,235.580322 211.309372,236.028809 
z"/>
<path fill="#FFFFFE" opacity="1.000000" stroke="none" 
	d="
M53.986576,242.328690 
	C54.101982,242.049240 54.309296,242.032913 54.828285,242.031342 
	C54.786137,242.227997 54.432312,242.409897 53.986576,242.328690 
z"/>
<path fill="#F9F8E6" opacity="1.000000" stroke="none" 
	d="
M210.835754,123.701828 
	C210.999405,124.155670 210.995712,124.322708 210.997757,124.740196 
	C210.563339,124.994148 210.123169,124.997650 209.353424,125.003052 
	C206.963165,124.670303 204.902832,124.046074 202.841721,124.043449 
	C153.476639,123.980515 104.111458,123.984184 54.257763,123.959259 
	C69.361519,110.413712 84.938126,96.866554 100.551994,83.362465 
	C109.875198,75.299042 119.336082,67.392693 128.563919,59.222404 
	C131.333481,56.770241 133.129929,56.649128 136.060135,59.192711 
	C160.840164,80.703125 185.777954,102.031776 210.835754,123.701828 
z"/>
<path fill="#71A0A4" opacity="1.000000" stroke="none" 
	d="
M197.780853,157.276627 
	C197.784348,180.180954 197.784348,202.612381 197.784348,225.424622 
	C185.258545,225.424622 173.056549,225.424622 160.467346,225.424622 
	C160.467346,201.763672 160.467346,178.108246 160.467346,153.825256 
	C172.218964,153.825256 183.802368,153.765457 195.381729,153.953430 
	C196.195480,153.966629 196.979523,155.810913 197.780853,157.276627 
M191.354233,189.851791 
	C189.147858,190.655807 184.743866,187.800278 185.067230,192.589920 
	C185.350555,196.786224 189.432800,194.471741 191.809708,194.768326 
	C192.776154,194.888916 193.925827,193.541046 194.992126,192.861313 
	C194.083679,191.861130 193.175232,190.860947 191.354233,189.851791 
z"/>
<path fill="#FAFBFC" opacity="1.000000" stroke="none" 
	d="
M98.999840,147.998169 
	C105.153015,148.000168 110.807388,148.069672 116.458923,147.973328 
	C118.976456,147.930435 120.041740,148.829056 120.029358,151.445770 
	C119.960136,166.077301 119.949127,180.709641 120.040703,195.340927 
	C120.058693,198.215652 118.888748,199.051514 116.175232,199.038544 
	C100.047287,198.961548 83.918587,198.960190 67.790665,199.039352 
	C65.045166,199.052826 63.940662,198.148285 63.958069,195.307449 
	C64.046707,180.842392 64.065239,166.375946 63.945122,151.911346 
	C63.919163,148.785553 65.138428,147.919601 68.072723,147.954041 
	C78.213882,148.073074 88.357315,147.998840 98.999840,147.998169 
M70.205231,157.770035 
	C70.205231,162.022949 70.205231,166.275879 70.205231,170.596451 
	C77.126366,170.596451 83.345482,170.596451 89.580154,170.596451 
	C89.580154,164.925735 89.580154,159.587189 89.580154,154.052582 
	C83.822235,154.052582 78.508934,153.904495 73.217537,154.178818 
	C72.172272,154.233017 71.211281,155.912689 70.205231,157.770035 
M96.852600,164.431519 
	C96.852600,166.490082 96.852600,168.548660 96.852600,170.528702 
	C103.798019,170.528702 109.847183,170.528702 115.886833,170.528702 
	C115.886833,164.931961 115.886833,159.720856 115.886833,154.354248 
	C109.473137,154.354248 103.429169,154.354248 96.852394,154.354248 
	C96.852394,157.584747 96.852394,160.524002 96.852600,164.431519 
M90.026016,190.336166 
	C90.026016,186.265472 90.026016,182.194778 90.026016,178.149277 
	C83.071388,178.149277 76.879822,178.149277 70.535599,178.149277 
	C70.535599,183.574234 70.535599,188.618622 70.535599,194.159149 
	C76.436310,194.159149 82.031677,194.278214 87.610863,194.031403 
	C88.452591,193.994171 89.218842,192.250732 90.026016,190.336166 
M109.443672,194.177460 
	C111.534401,194.177460 113.625130,194.177460 115.932487,194.177460 
	C115.932487,188.460068 115.932487,183.430450 115.932487,178.218948 
	C109.472580,178.218948 103.332932,178.218948 97.243607,178.218948 
	C97.243607,183.701080 97.243607,188.736694 97.243607,194.177719 
	C101.235558,194.177719 104.848488,194.177719 109.443672,194.177460 
z"/>
<path fill="#CCECE9" opacity="1.000000" stroke="none" 
	d="
M191.810501,189.856293 
	C193.175232,190.860947 194.083679,191.861130 194.992126,192.861313 
	C193.925827,193.541046 192.776154,194.888916 191.809708,194.768326 
	C189.432800,194.471741 185.350555,196.786224 185.067230,192.589920 
	C184.743866,187.800278 189.147858,190.655807 191.810501,189.856293 
z"/>
<path fill="#73A1A5" opacity="1.000000" stroke="none" 
	d="
M70.208328,157.306396 
	C71.211281,155.912689 72.172272,154.233017 73.217537,154.178818 
	C78.508934,153.904495 83.822235,154.052582 89.580154,154.052582 
	C89.580154,159.587189 89.580154,164.925735 89.580154,170.596451 
	C83.345482,170.596451 77.126366,170.596451 70.205231,170.596451 
	C70.205231,166.275879 70.205231,162.022949 70.208328,157.306396 
z"/>
<path fill="#709FA3" opacity="1.000000" stroke="none" 
	d="
M96.852493,163.947388 
	C96.852394,160.524002 96.852394,157.584747 96.852394,154.354248 
	C103.429169,154.354248 109.473137,154.354248 115.886833,154.354248 
	C115.886833,159.720856 115.886833,164.931961 115.886833,170.528702 
	C109.847183,170.528702 103.798019,170.528702 96.852600,170.528702 
	C96.852600,168.548660 96.852600,166.490082 96.852493,163.947388 
z"/>
<path fill="#71A0A4" opacity="1.000000" stroke="none" 
	d="
M90.023010,190.816345 
	C89.218842,192.250732 88.452591,193.994171 87.610863,194.031403 
	C82.031677,194.278214 76.436310,194.159149 70.535599,194.159149 
	C70.535599,188.618622 70.535599,183.574234 70.535599,178.149277 
	C76.879822,178.149277 83.071388,178.149277 90.026016,178.149277 
	C90.026016,182.194778 90.026016,186.265472 90.023010,190.816345 
z"/>
<path fill="#6E9EA2" opacity="1.000000" stroke="none" 
	d="
M108.952545,194.177582 
	C104.848488,194.177719 101.235558,194.177719 97.243607,194.177719 
	C97.243607,188.736694 97.243607,183.701080 97.243607,178.218948 
	C103.332932,178.218948 109.472580,178.218948 115.932487,178.218948 
	C115.932487,183.430450 115.932487,188.460068 115.932487,194.177460 
	C113.625130,194.177460 111.534401,194.177460 108.952545,194.177582 
z"/>
</svg>